<svg height="212.132034" viewBox="0 0 59.671822 26.738739" width="471.404521" xmlns="http://www.w3.org/2000/svg"><g height="31" transform="translate(-1.77518 -2.237332)" width="62"><path d="m6.534 10.011c.504.306 1.079.234 1.296-.155.218-.391.001-.974-.499-1.305-.514-.342-1.127-.287-1.352.132-.222.415.032 1.013.555 1.328m5.967-.996s-.012-.003-.012-.003c.431-.184 1.312-.123 2.033.74.156.214.412.306.624.208.248-.114.348-.449.223-.754-.129-.311-.443-.475-.703-.361-.009.004-.017.008-.026.012-.651.223-1.498-.188-2.086-.977-.012-.019-.025-.037-.039-.054v-.001c-.224-.286-.562-.415-.839-.32v-.001s-.001.001-.001.001c-.026.009-.052.02-.078.033-1.217.519-1.856.323-2.486-.536-.08-.13-.185-.254-.315-.361-.485-.4-1.12-.421-1.402-.034s-.093 1.015.409 1.394c.292.22.625.305.902.258h.002c.035-.007.07-.015.104-.025.626-.149 2.003-.422 2.616.409.007.011.014.022.021.033.02.03.041.059.063.086.547 1.076.345 1.74-.1 2.546-.014.021-.026.042-.037.066-.121.27.034.61.342.754.3.142.636.043.754-.217.077-.17.044-.371-.07-.532-.614-.925-.407-2.158.101-2.364m-.025-.006s-.017-.005-.017-.005.005-.003.005-.003.013-.009.013-.009-.001.017-.001.017zm3.25-2.932c-.763.146-1.725-.309-1.991-1.208-.008-.038-.018-.076-.029-.114-.013-.042-.028-.084-.045-.126-.228-.562-.758-.902-1.181-.745-.427.159-.563.759-.307 1.322.19.422.545.697.881.727h.003c.015.001.029.002.044.002 1.115.061 1.789.316 2.26 1.101.103.311.344.529.595.555.796.141 1.438.495 1.616 1.055.062.21.225.359.407.358.221-.001.391-.225.384-.504-.007-.281-.197-.516-.424-.521-.017 0-.033.001-.049.003-.022.003-.043.008-.063.015-.615.122-1.295-.413-1.314-.862.01-.042.017-.087.02-.132.238-.963.56-1.513 1.438-1.804.034-.007.066-.017.097-.03.254-.11.426-.435.416-.84-.013-.533-.337-1.016-.73-1.066-.346-.048-.621.258-.668.701v.001c-.006.06-.008.121-.006.185-.045 1.184-.197 1.785-1.285 1.916-.011 0-.022.002-.034.004s-.023.004-.035.007m6.572-.149c-.187.976.029 1.434.342 1.849.032.013.064.032.093.058.006.005.011.01.016.016.513.491.973.451 1.542-.101.174-.189.4-.186.531.018.145.225.119.608-.052.859-.161.234-.397.277-.549.108-.555-.423-.839-.462-1.557-.023-.111.079-.242.083-.347-.005-.123-.103-.179-.302-.15-.499v-.002c.002-.014.005-.028.008-.042.099-.582-.006-1.244-.623-1.867-.233-.19-.337-.615-.227-.993.119-.413.443-.6.716-.414.224.15.339.502.298.842v.001c-.007.066-.021.131-.041.195zm-15.683 6.736c.531.191 1.048.012 1.168-.401.124-.415-.201-.928-.736-1.144-.551-.224-1.106-.046-1.223.396-.117.439.244.952.791 1.149m19.466-2.818c-.112.121-.151.332-.088.468.061.133.197.146.306.03.108-.117.15-.322.093-.46-.059-.141-.199-.16-.311-.038m-7.04-1.451c-.033.269.11.52.317.565.203.044.396-.132.432-.394.037-.265-.098-.523-.307-.575s-.41.13-.442.404m-3.059.547c.076.321.346.528.603.469.255-.057.406-.355.341-.67-.067-.322-.335-.543-.598-.489-.266.054-.422.366-.346.69m-2.744 1.768c.193.275.533.356.761.188.229-.168.266-.525.081-.803-.189-.284-.535-.378-.772-.206-.239.172-.269.542-.07.821m7.578-3.402c-.088.301.018.637.232.748.209.109.449-.036.539-.327.09-.295-.005-.632-.216-.753-.215-.124-.466.025-.555.332m-1.643-.564c-.043.36.138.704.401.774.259.07.505-.154.553-.502.05-.351-.12-.705-.384-.787-.269-.081-.526.151-.57.515m-1.898-.125c.019.41.291.744.598.755.302.01.537-.299.525-.698-.01-.406-.271-.757-.583-.777-.319-.023-.563.303-.54.72m-3.863 1.048c.18.403.579.61.894.474.311-.135.431-.563.267-.965-.17-.411-.573-.643-.9-.508-.331.136-.447.587-.261.999m-3.858 3.541c.409.169.84.033.972-.299s-.082-.747-.486-.933c-.414-.188-.869-.062-1.006.286-.136.347.101.773.52.946m15.762-2.343c-.167.18-.225.495-.132.698.092.199.295.218.457.044.162-.173.224-.479.139-.685-.088-.211-.296-.239-.464-.057m-2.359-2.428c-.152.322-.104.74.098.933.2.189.477.092.626-.215.15-.308.116-.722-.079-.926-.201-.209-.492-.117-.645.208m-3.612-1.908c-.06.497.177.982.518 1.097.333.11.654-.179.721-.653.069-.481-.148-.985-.491-1.117-.351-.134-.689.17-.748.673m-4.708-.149c.136.562.574.954.979.894.397-.059.629-.54.519-1.09-.116-.562-.549-.991-.97-.943-.429.047-.666.564-.528 1.139m-4.896 2.077c.356.495.934.678 1.299.421.363-.255.397-.86.064-1.367-.343-.524-.941-.744-1.33-.479-.39.268-.401.912-.033 1.425" fill="#68448b" fill-rule="evenodd"/><path d="m14.806 26.844c.021-.59-.322-1.056-.767-1.056-.448 0-.851.473-.897 1.071-.048.616.299 1.124.774 1.117.471-.009.87-.522.89-1.132m-3.778-4.726s.003.012.003.012c-.37-.286-.746-1.085-.344-2.135.111-.242.066-.51-.122-.646-.221-.162-.562-.086-.767.172-.209.264-.199.618.027.79.007.006.015.011.023.017.512.459.566 1.399.163 2.297-.01.02-.02.04-.028.061-.142.335-.09.693.128.889h.001c.021.019.044.036.067.053 1.046.81 1.187 1.463.743 2.431-.075.133-.131.286-.162.452-.112.619.179 1.182.654 1.24.476.058.932-.413 1.018-1.036.05-.362-.038-.694-.214-.913 0 0-.001-.002-.001-.002-.023-.027-.048-.054-.073-.079-.435-.474-1.344-1.543-.917-2.484.006-.011.012-.022.018-.034.017-.032.032-.064.044-.097.673-1.002 1.352-1.149 2.272-1.153.025.002.051.002.076 0 .295-.026.516-.326.492-.665-.022-.332-.272-.577-.557-.553-.186.015-.346.141-.43.32-.509.987-1.686 1.407-2.114 1.063m.007.025s.005.018.005.018-.006-.003-.006-.003-.014-.007-.014-.007.015-.008.015-.008zm-4.144-1.409c.5.595.571 1.657-.085 2.327-.029.026-.057.052-.085.081-.03.032-.06.065-.088.101-.38.473-.419 1.102-.075 1.394.347.295.937.122 1.304-.376.276-.372.343-.816.205-1.124 0 0-.001-.002-.001-.002-.006-.013-.013-.027-.02-.04-.49-1.003-.595-1.715-.14-2.509.222-.242.295-.559.195-.791-.265-.763-.268-1.497.134-1.925.153-.156.204-.372.114-.53-.109-.193-.387-.232-.627-.09-.242.144-.355.424-.248.624.008.015.017.029.026.041v.001c.014.018.028.033.044.048.406.477.271 1.331-.112 1.567-.042.012-.084.028-.126.047-.957.261-1.594.248-2.276-.377-.022-.026-.046-.049-.073-.069v-.001c-.22-.168-.588-.16-.936.046-.459.271-.723.79-.576 1.157.127.326.529.417.938.242h.001c.055-.024.11-.052.165-.085 1.055-.539 1.654-.698 2.298.188.007.009.014.019.021.028s.015.018.023.027m-3.332-5.666c.943-.312 1.237-.725 1.448-1.2-.005-.035-.004-.071.005-.11.002-.007.004-.014.006-.021.179-.688-.08-1.07-.839-1.297-.25-.06-.358-.259-.243-.473.125-.236.472-.401.775-.373.282.026.436.211.362.427-.099.69.005.958.738 1.371.123.057.19.17.165.305-.03.157-.177.303-.362.374 0 0-.002.001-.002.001-.014.005-.027.009-.041.013-.557.197-1.084.612-1.327 1.455-.052.296-.373.593-.756.682-.419.096-.74-.095-.711-.425.022-.267.273-.539.59-.67h.001c.061-.026.125-.046.19-.059zm13.523 10.412c-.091-.556-.5-.921-.918-.824-.423.094-.713.627-.641 1.2.074.59.499.988.942.875.44-.112.713-.678.617-1.251m-11.946-15.625c.161.039.364-.03.452-.151.087-.118.031-.244-.123-.282-.155-.038-.354.026-.446.143-.095.12-.044.251.117.29m2.163 6.855c.252-.103.401-.35.34-.552-.062-.199-.309-.282-.555-.186-.249.097-.409.341-.353.548.057.209.314.296.568.19m1.969 2.404c.243-.223.292-.559.117-.754-.174-.195-.509-.182-.753.028-.248.215-.31.556-.134.761s.524.189.77-.035m2.882 1.535c.145-.303.05-.639-.208-.756-.257-.118-.587.023-.74.32-.156.304-.069.652.196.775.267.124.605-.03.752-.339m-6.665-4.96c.307-.07.548-.325.541-.567-.007-.236-.25-.374-.548-.311-.302.065-.55.312-.552.555-.004.249.248.395.559.323m.309 1.71c.336-.137.548-.464.48-.727-.065-.26-.38-.366-.707-.239-.331.128-.558.449-.501.719.06.275.389.386.728.247m.816 1.718c.348-.217.508-.616.368-.89-.139-.268-.523-.323-.866-.118-.349.206-.529.605-.395.888.136.29.54.343.893.12m2.798 2.863c.263-.354.25-.803-.023-1.012-.269-.206-.701-.101-.972.237-.277.349-.283.814-.006 1.034.281.222.731.103 1.001-.259m4.972 1.643c-.053-.439-.381-.75-.735-.703-.355.047-.614.436-.578.879.037.453.369.79.74.739.369-.05.625-.465.573-.915m-9.728-12.622c.239.058.542-.044.675-.225.129-.177.046-.364-.184-.421-.231-.056-.528.039-.667.213-.141.18-.064.375.176.433m-.97 3.243c.355-.024.697-.27.767-.54.067-.266-.153-.461-.493-.442-.342.019-.687.25-.77.521-.085.277.138.486.496.461m.094 4.084c.462-.19.771-.633.705-.987-.066-.344-.475-.484-.921-.312-.454.175-.788.609-.736.973.054.372.483.519.952.326m2.164 4.184c.425-.392.553-.966.304-1.291-.246-.318-.779-.286-1.205.078-.435.376-.598.963-.351 1.307.25.351.818.307 1.252-.094m4.2 3.263c.258-.552.137-1.146-.265-1.34-.401-.193-.946.073-1.226.611-.291.554-.191 1.184.23 1.395.424.21.992-.095 1.261-.666" fill="#916ba4" fill-rule="evenodd"/><g fill="#323539"><path d="m15.131 12.986v2.083h-.466v-2.958h.366s1.692 2.133 1.692 2.133v-2.129h.471v2.954h-.388s-1.675-2.083-1.675-2.083zm4.759 1.67v.413h-2.03v-2.958h1.992v.412h-1.525v.842h1.321v.387h-1.321v.904zm1.716.013c.156 0 .285-.031.388-.092.102-.061.185-.141.248-.239.062-.099.107-.212.133-.338s.04-.256.04-.389v-1.5h.47v1.5c0 .202-.023.394-.071.572-.047.18-.122.337-.225.471-.103.135-.235.241-.398.319-.162.078-.357.116-.585.116-.236 0-.435-.04-.598-.122-.162-.082-.294-.192-.394-.33-.1-.137-.172-.295-.216-.472-.045-.178-.067-.363-.067-.554v-1.5h.467v1.5c0 .136.013.267.039.394.027.126.071.238.134.337.062.098.145.178.25.237.104.06.232.09.385.09m1.9.4v-2.958h1.288c.133 0 .256.028.368.083.112.056.209.128.29.219.08.09.144.192.189.308.046.115.069.233.069.352 0 .1-.014.196-.041.288-.028.091-.067.176-.117.254s-.111.145-.183.202c-.073.057-.152.099-.238.127 0 0 .696 1.125.696 1.125h-.53s-.641-1.029-.641-1.029h-.683v1.029zm.467-1.442h.817c.066 0 .126-.014.18-.043.054-.03.101-.07.14-.121.039-.052.069-.111.092-.177.022-.067.033-.138.033-.213s-.013-.146-.039-.213c-.027-.066-.062-.124-.105-.174-.043-.051-.093-.09-.15-.119s-.115-.044-.177-.044h-.791zm3.112-1.516h.409s1.166 2.958 1.166 2.958h-.492s-.312-.804-.312-.804h-1.142s-.308.804-.308.804h-.496s1.175-2.958 1.175-2.958zm.679 1.808s-.475-1.271-.475-1.271-.491 1.271-.491 1.271zm1.263 1.15v-2.958h.466v2.545h1.588v.413zm3.35 0v-2.958h.466v2.958zm1.599-2.083v2.083h-.466v-2.958h.366s1.692 2.133 1.692 2.133v-2.129h.471v2.954h-.387s-1.676-2.083-1.676-2.083zm2.73 2.083v-2.958h1.97v.412h-1.504v.884h1.259v.387h-1.259v1.275zm3.575.02c-.212 0-.404-.042-.578-.126-.173-.085-.322-.198-.447-.338-.126-.14-.222-.3-.29-.481s-.102-.365-.102-.554c0-.197.036-.386.108-.567s.172-.34.298-.479c.127-.139.276-.249.45-.332.174-.081.363-.122.569-.122.211 0 .403.043.577.131.174.087.322.202.446.344.123.141.219.302.287.481s.102.362.102.548c0 .197-.035.386-.106.567-.071.18-.17.339-.298.476-.128.138-.278.248-.452.33s-.362.122-.564.122m-.942-1.499c0 .139.022.273.067.404.044.13.107.246.189.346s.181.18.298.239c.117.06.247.09.392.09.15 0 .282-.032.398-.094.115-.063.213-.145.293-.248.081-.102.142-.218.184-.345.042-.128.062-.259.062-.392 0-.142-.022-.277-.066-.407-.045-.128-.108-.243-.19-.341-.082-.099-.181-.178-.296-.238-.115-.059-.244-.089-.385-.089-.15 0-.284.031-.4.093-.117.063-.216.144-.296.244-.081.1-.143.215-.185.344-.043.129-.065.26-.065.394m2.846 1.479v-2.958h1.287c.133 0 .256.028.369.083.112.056.209.128.289.219.081.09.144.192.19.308.046.115.069.233.069.352 0 .1-.014.196-.042.288-.028.091-.067.176-.117.254s-.111.145-.183.202-.151.099-.238.127c0 0 .696 1.125.696 1.125h-.529s-.641-1.029-.641-1.029h-.684v1.029zm.466-1.442h.817c.066 0 .127-.014.181-.043.054-.03.101-.07.14-.121.039-.052.069-.111.091-.177.023-.067.033-.138.033-.213s-.012-.146-.039-.213c-.026-.066-.061-.124-.104-.174-.043-.051-.093-.09-.15-.119s-.116-.044-.177-.044h-.792zm4.775 1.442v-2.129s-.879 1.612-.879 1.612h-.259s-.883-1.612-.883-1.612v2.129h-.466v-2.958h.499s.98 1.808.98 1.808.979-1.808.979-1.808h.5v2.958zm2.008-2.958h.409s1.166 2.958 1.166 2.958h-.492s-.312-.804-.312-.804h-1.141s-.309.804-.309.804h-.496s1.175-2.958 1.175-2.958zm.679 1.808s-.475-1.271-.475-1.271-.491 1.271-.491 1.271zm3.142-1.396h-.983v2.546h-.471v-2.546h-.988v-.412h2.442zm.396 2.546v-2.958h.467v2.958zm2.362.02c-.211 0-.403-.042-.577-.126-.173-.085-.323-.198-.448-.338s-.221-.3-.289-.481-.102-.365-.102-.554c0-.197.036-.386.108-.567s.172-.34.298-.479.276-.249.45-.332c.173-.081.363-.122.569-.122.211 0 .403.043.577.131.173.087.322.202.446.344.123.141.219.302.287.481s.102.362.102.548c0 .197-.035.386-.106.567-.071.18-.17.339-.298.476-.128.138-.278.248-.452.33s-.362.122-.565.122m-.941-1.499c0 .139.022.273.067.404.044.13.107.246.189.346s.181.18.298.239c.116.06.247.09.392.09.15 0 .282-.032.397-.094.116-.063.214-.145.294-.248.081-.102.142-.218.183-.345.042-.128.063-.259.063-.392 0-.142-.022-.277-.067-.407-.044-.128-.107-.243-.189-.341-.082-.099-.181-.178-.296-.238-.115-.059-.244-.089-.385-.089-.151 0-.284.031-.4.093-.117.063-.216.144-.296.244-.081.1-.143.215-.186.344s-.064.26-.064.394m3.312-.604v2.083h-.467v-2.958h.367s1.691 2.133 1.691 2.133v-2.129h.472v2.954h-.388s-1.675-2.083-1.675-2.083z"/><path d="m14.665 19.329v-2.927h1.228c.132 0 .253.028.365.083.111.055.207.127.286.216.08.09.143.191.188.306.045.114.068.23.068.348 0 .124-.021.242-.064.357-.043.113-.103.215-.179.305-.077.088-.17.16-.279.214-.108.053-.229.08-.36.08h-.792v1.018zm.461-1.426h.763c.066 0 .125-.014.179-.041.054-.028.1-.066.138-.116.038-.049.069-.106.091-.173.022-.066.033-.139.033-.218 0-.083-.013-.157-.037-.223-.025-.066-.059-.123-.103-.171s-.094-.085-.15-.111c-.057-.026-.116-.039-.176-.039h-.738zm2.144 1.426v-2.927h1.273c.132 0 .254.028.365.083.112.055.207.127.287.216.079.09.142.191.187.306.046.114.068.23.068.348 0 .098-.014.194-.041.285-.028.09-.066.174-.116.251-.049.077-.11.143-.181.199-.071.057-.15.099-.235.126 0 0 .689 1.113.689 1.113h-.524s-.635-1.018-.635-1.018h-.676v1.018zm.461-1.426h.808c.066 0 .126-.014.18-.043.053-.029.099-.069.138-.12.038-.051.068-.109.09-.175s.033-.136.033-.21c0-.075-.013-.144-.039-.21-.026-.067-.06-.124-.103-.173-.042-.05-.092-.089-.148-.118-.057-.029-.115-.043-.175-.043h-.784zm3.516 1.447c-.209 0-.399-.042-.571-.126-.171-.084-.319-.195-.442-.334-.124-.139-.22-.297-.287-.476s-.101-.361-.101-.548c0-.195.036-.382.107-.561.071-.178.17-.337.294-.474.126-.137.274-.246.446-.327.172-.082.359-.122.563-.122.208 0 .399.043.571.13.171.087.318.2.44.34.123.14.218.299.285.476s.101.358.101.542c0 .195-.035.382-.105.561-.07.178-.168.336-.295.472-.126.135-.275.244-.447.325s-.358.122-.559.122m-.931-1.484c0 .137.022.271.065.4.045.129.107.243.188.342s.179.178.295.237.244.088.388.088c.148 0 .279-.03.393-.092s.211-.144.291-.245c.079-.102.14-.216.181-.342.041-.127.062-.256.062-.388 0-.14-.022-.274-.066-.402s-.107-.241-.188-.338-.178-.176-.292-.235-.241-.089-.381-.089c-.149 0-.281.032-.396.093-.116.062-.213.142-.293.241s-.141.213-.183.34c-.043.128-.064.258-.064.39m2.667-.02c0-.177.031-.352.095-.526.063-.175.155-.331.278-.47.122-.139.271-.251.447-.336s.375-.128.598-.128c.266 0 .494.059.684.177.189.118.332.272.429.462 0 0-.363.243-.363.243-.041-.088-.091-.162-.148-.222-.058-.061-.122-.109-.191-.145-.068-.035-.139-.061-.214-.076-.074-.015-.145-.023-.214-.023-.154 0-.289.032-.404.093-.115.062-.212.144-.291.245-.078.102-.137.216-.177.343-.039.126-.059.253-.059.379 0 .143.023.279.07.408.046.129.111.243.195.342s.184.178.299.237c.116.059.242.089.379.089.072 0 .145-.009.221-.027.075-.018.148-.047.218-.087.07-.039.135-.09.194-.15s.108-.133.146-.219c0 0 .384.219.384.219-.047.11-.113.207-.198.291-.085.083-.181.154-.288.212-.108.058-.221.101-.341.132-.119.03-.237.045-.352.045-.206 0-.394-.044-.565-.132-.17-.088-.317-.203-.441-.344-.123-.142-.22-.302-.288-.483-.069-.179-.103-.363-.103-.549m5.049 1.075v.408h-2.008v-2.927h1.971v.409h-1.509v.832h1.307v.384h-1.307v.894zm2.185-1.83c-.028-.03-.068-.062-.12-.097-.052-.034-.113-.067-.184-.097-.07-.03-.146-.055-.23-.074s-.17-.029-.258-.029c-.195 0-.339.036-.431.107-.092.072-.138.171-.138.297 0 .072.014.13.044.175.029.046.073.086.134.12.06.034.136.065.226.091.091.026.197.054.318.084.148.036.282.076.402.12.119.044.22.097.302.16.083.064.147.141.192.233.046.092.068.204.068.336 0 .148-.028.276-.084.384-.057.107-.134.194-.231.261-.098.067-.211.117-.34.149-.129.031-.268.047-.417.047-.222 0-.437-.033-.645-.101-.207-.068-.395-.165-.562-.295 0 0 .21-.395.21-.395.036.035.087.075.155.119.067.044.145.085.234.122.09.037.187.069.291.095s.213.039.326.039c.181 0 .321-.032.42-.095s.148-.156.148-.28c0-.075-.018-.136-.055-.186-.037-.049-.09-.093-.159-.13s-.152-.071-.251-.101-.212-.062-.338-.095c-.146-.038-.273-.078-.382-.121-.108-.043-.198-.094-.269-.155-.072-.06-.126-.131-.163-.212s-.056-.179-.056-.295c0-.143.027-.27.082-.381s.13-.205.225-.28c.095-.076.207-.133.336-.171.129-.039.269-.058.421-.058.198 0 .38.032.548.095.167.063.314.141.441.235 0 0-.21.379-.21.379m2.555 0c-.027-.03-.067-.062-.119-.097-.052-.034-.114-.067-.184-.097s-.147-.055-.231-.074c-.083-.019-.17-.029-.257-.029-.196 0-.339.036-.431.107-.092.072-.138.171-.138.297 0 .072.014.13.043.175.029.046.074.086.134.12s.136.065.227.091.196.054.317.084c.149.036.283.076.402.12.12.044.221.097.303.16.083.064.146.141.192.233.045.092.068.204.068.336 0 .148-.028.276-.085.384-.056.107-.133.194-.231.261-.097.067-.211.117-.34.149-.129.031-.268.047-.416.047-.223 0-.437-.033-.645-.101-.207-.068-.395-.165-.563-.295 0 0 .211-.395.211-.395.035.035.087.075.154.119s.146.085.235.122c.09.037.186.069.291.095.104.026.213.039.325.039.181 0 .322-.032.421-.095.098-.063.148-.156.148-.28 0-.075-.018-.136-.056-.186-.037-.049-.09-.093-.158-.13-.069-.037-.153-.071-.252-.101-.098-.03-.211-.062-.338-.095-.145-.038-.273-.078-.381-.121-.109-.043-.198-.094-.27-.155-.072-.06-.126-.131-.163-.212s-.055-.179-.055-.295c0-.143.027-.27.082-.381s.13-.205.225-.28c.094-.076.207-.133.336-.171.129-.039.269-.058.42-.058.198 0 .381.032.548.095.168.063.315.141.441.235 0 0-.21.379-.21.379m.824 2.238v-2.927h.462v2.927zm1.62-2.061v2.061h-.461v-2.927h.362s1.674 2.111 1.674 2.111v-2.106h.466v2.922h-.384s-1.657-2.061-1.657-2.061zm4.786 1.698c-.247.256-.532.384-.853.384-.196 0-.377-.041-.544-.122-.168-.081-.314-.19-.438-.327-.123-.138-.22-.297-.29-.479-.07-.181-.105-.37-.105-.568s.035-.386.105-.565.167-.335.29-.47c.124-.135.271-.241.442-.319.17-.079.356-.118.556-.118.281 0 .515.058.705.175.189.117.332.272.429.464 0 0-.355.255-.355.255-.08-.159-.189-.279-.329-.358-.141-.08-.295-.119-.462-.119-.138 0-.262.029-.375.088s-.209.137-.289.235c-.079.097-.14.211-.183.34s-.064.264-.064.404c0 .148.024.287.072.416s.114.242.198.338.183.173.299.229c.115.056.24.084.375.084.148 0 .291-.034.426-.102.136-.069.266-.178.39-.326v-.313h-.614v-.343h1.002v1.48h-.388zm3.701-1.875c-.027-.03-.067-.062-.119-.097-.052-.034-.113-.067-.184-.097-.07-.03-.147-.055-.23-.074-.084-.019-.17-.029-.258-.029-.195 0-.339.036-.431.107-.092.072-.138.171-.138.297 0 .072.015.13.043.175.029.046.074.086.134.12.061.034.136.065.227.091s.197.054.318.084c.148.036.282.076.402.12.119.044.22.097.302.16.083.064.147.141.192.233.046.092.068.204.068.336 0 .148-.028.276-.085.384-.056.107-.133.194-.23.261-.098.067-.211.117-.34.149-.129.031-.268.047-.417.047-.222 0-.437-.033-.645-.101-.207-.068-.395-.165-.562-.295 0 0 .21-.395.21-.395.036.035.087.075.154.119.068.044.146.085.235.122.09.037.187.069.291.095s.213.039.326.039c.181 0 .321-.032.42-.095s.148-.156.148-.28c0-.075-.018-.136-.055-.186-.037-.049-.09-.093-.159-.13s-.152-.071-.251-.101-.212-.062-.339-.095c-.145-.038-.272-.078-.381-.121-.108-.043-.198-.094-.269-.155-.072-.06-.126-.131-.163-.212s-.056-.179-.056-.295c0-.143.027-.27.082-.381s.13-.205.225-.28c.095-.076.207-.133.336-.171.129-.039.269-.058.42-.058.198 0 .381.032.549.095.167.063.314.141.44.235 0 0-.21.379-.21.379m.977-.689s.808 1.468.808 1.468.816-1.468.816-1.468h.507s-1.092 1.88-1.092 1.88v1.047h-.462v-1.055s-1.084-1.872-1.084-1.872zm4.184.689c-.027-.03-.067-.062-.119-.097-.053-.034-.114-.067-.184-.097s-.147-.055-.231-.074-.169-.029-.257-.029c-.196 0-.339.036-.431.107-.092.072-.138.171-.138.297 0 .072.014.13.043.175.029.046.074.086.134.12s.136.065.227.091c.09.026.196.054.317.084.149.036.283.076.402.12.12.044.22.097.303.16.082.064.147.141.192.233s.068.204.068.336c0 .148-.029.276-.085.384-.056.107-.133.194-.231.261-.097.067-.211.117-.34.149-.129.031-.268.047-.416.047-.223 0-.438-.033-.645-.101s-.395-.165-.563-.295c0 0 .21-.395.21-.395.036.035.088.075.155.119s.146.085.235.122.186.069.291.095c.104.026.213.039.325.039.181 0 .322-.032.421-.095s.148-.156.148-.28c0-.075-.019-.136-.056-.186-.037-.049-.089-.093-.158-.13s-.153-.071-.252-.101-.211-.062-.338-.095c-.146-.038-.272-.078-.381-.121s-.199-.094-.27-.155c-.071-.06-.126-.131-.163-.212s-.055-.179-.055-.295c0-.143.027-.27.082-.381s.13-.205.224-.28c.095-.076.207-.133.336-.171.13-.039.27-.058.421-.058.198 0 .381.032.548.095.168.063.315.141.441.235 0 0-.21.379-.21.379m2.951-.28h-.972v2.518h-.466v-2.518h-.977v-.409h2.415zm2.436 2.11v.408h-2.007v-2.927h1.97v.409h-1.508v.832h1.307v.384h-1.307v.894zm2.976.408v-2.106s-.869 1.595-.869 1.595h-.256s-.874-1.595-.874-1.595v2.106h-.461v-2.927h.494s.969 1.79.969 1.79.969-1.79.969-1.79h.494v2.927zm2.894-2.238c-.028-.03-.068-.062-.12-.097-.052-.034-.113-.067-.183-.097s-.147-.055-.231-.074-.17-.029-.257-.029c-.196 0-.339.036-.431.107-.092.072-.138.171-.138.297 0 .072.014.13.043.175.029.046.073.086.134.12.06.034.136.065.227.091.09.026.196.054.317.084.148.036.282.076.402.12.119.044.22.097.303.16.082.064.146.141.192.233.045.092.068.204.068.336 0 .148-.029.276-.085.384-.056.107-.133.194-.231.261s-.211.117-.34.149c-.129.031-.268.047-.416.047-.223 0-.438-.033-.645-.101-.208-.068-.395-.165-.563-.295 0 0 .21-.395.21-.395.036.035.088.075.155.119s.146.085.235.122.186.069.29.095c.105.026.213.039.326.039.181 0 .322-.032.42-.095.099-.063.149-.156.149-.28 0-.075-.019-.136-.056-.186-.037-.049-.09-.093-.159-.13-.068-.037-.152-.071-.251-.101s-.211-.062-.338-.095c-.146-.038-.273-.078-.381-.121-.109-.043-.199-.094-.27-.155-.072-.06-.126-.131-.163-.212s-.056-.179-.056-.295c0-.143.028-.27.083-.381s.13-.205.224-.28c.095-.076.207-.133.336-.171.13-.039.27-.058.421-.058.198 0 .38.032.548.095s.315.141.441.235c0 0-.21.379-.21.379"/></g></g></svg>