<?xml version="1.0" encoding="UTF-8" standalone="no"?>
<!DOCTYPE svg PUBLIC "-//W3C//DTD SVG 1.1//EN" "http://www.w3.org/Graphics/SVG/1.1/DTD/svg11.dtd">
<svg version="1.1" xmlns:xl="http://www.w3.org/1999/xlink" xmlns="http://www.w3.org/2000/svg" xmlns:dc="http://purl.org/dc/elements/1.1/" viewBox="0 0 270 270" width="270" height="270">
  <defs/>
  <g id="Canvas_1" fill-opacity="1" stroke-opacity="1" stroke="none" stroke-dasharray="none" fill="none">
    <title>Canvas 1</title>
    <g id="Canvas_1_Layer_1">
      <title>Layer 1</title>
      <g id="Group_2">
        <g id="Group_12">
          <g id="Graphic_14">
            <path d="M 56.726384 170.6189 C 56.726384 186.22964 43.97394 198.98208 28.363192 198.98208 C 12.752443 198.98208 -12079227e-20 186.22964 -12079227e-20 170.6189 C -12079227e-20 155.00814 12.752443 142.2557 28.363192 142.2557 L 56.726384 142.2557 Z" fill="black"/>
          </g>
          <g id="Graphic_13">
            <path d="M 71.017915 170.6189 C 71.017915 155.00814 83.77036 142.2557 99.38111 142.2557 C 114.99186 142.2557 127.7443 155.00814 127.7443 170.6189 L 127.7443 241.6368 C 127.7443 257.24756 114.99186 270 99.38111 270 C 83.77036 270 71.017915 257.24756 71.017915 241.6368 Z" fill="black"/>
          </g>
        </g>
        <g id="Group_9">
          <g id="Graphic_11">
            <path d="M 99.38111 56.726384 C 83.77036 56.726384 71.017915 43.97394 71.017915 28.363192 C 71.017915 12.752443 83.77036 -4973799e-20 99.38111 -4973799e-20 C 114.99186 -4973799e-20 127.7443 12.752443 127.7443 28.363192 L 127.7443 56.726384 Z" fill="black"/>
          </g>
          <g id="Graphic_10">
            <path d="M 99.38111 71.017915 C 114.99186 71.017915 127.7443 83.77036 127.7443 99.38111 C 127.7443 114.99186 114.99186 127.7443 99.38111 127.7443 L 28.363192 127.7443 C 12.752443 127.7443 -10658141e-20 114.99186 -10658141e-20 99.38111 C -10658141e-20 83.77036 12.752443 71.017915 28.363192 71.017915 Z" fill="black"/>
          </g>
        </g>
        <g id="Group_6">
          <g id="Graphic_8">
            <path d="M 213.27362 99.38111 C 213.27362 83.77036 226.02606 71.017915 241.6368 71.017915 C 257.24756 71.017915 270 83.77036 270 99.38111 C 270 114.99186 257.24756 127.7443 241.6368 127.7443 L 213.27362 127.7443 Z" fill="black"/>
          </g>
          <g id="Graphic_7">
            <path d="M 198.98208 99.38111 C 198.98208 114.99186 186.22964 127.7443 170.6189 127.7443 C 155.00814 127.7443 142.2557 114.99186 142.2557 99.38111 L 142.2557 28.363192 C 142.2557 12.752443 155.00814 -42632564e-21 170.6189 -42632564e-21 C 186.22964 -42632564e-21 198.98208 12.752443 198.98208 28.363192 Z" fill="black"/>
          </g>
        </g>
        <g id="Group_3">
          <g id="Graphic_5">
            <path d="M 170.6189 213.27362 C 186.22964 213.27362 198.98208 226.02606 198.98208 241.6368 C 198.98208 257.24756 186.22964 270 170.6189 270 C 155.00814 270 142.2557 257.24756 142.2557 241.6368 L 142.2557 213.27362 Z" fill="black"/>
          </g>
          <g id="Graphic_4">
            <path d="M 170.6189 198.98208 C 155.00814 198.98208 142.2557 186.22964 142.2557 170.6189 C 142.2557 155.00814 155.00814 142.2557 170.6189 142.2557 L 241.6368 142.2557 C 257.24756 142.2557 270 155.00814 270 170.6189 C 270 186.22964 257.24756 198.98208 241.6368 198.98208 Z" fill="black"/>
          </g>
        </g>
      </g>
    </g>
  </g>
</svg>
